<svg xmlns="http://www.w3.org/2000/svg" width="600" height="600" viewBox="0 0 600 600" style="background:#f5f3ef">
  <g fill="none" stroke-width="2">
    <!-- 背景纹理 -->
    <path stroke="#e0ddd8" d="M0 0l50 50" stroke-width="1" opacity="0.3" transform="translate(-50)"/>
    
    <!-- 筷子 -->
    <g stroke="#c69b7b" stroke-linecap="round">
      <path d="M80 80l25 280" stroke-width="4"/>
      <path d="M110 90l25 270" stroke-width="3.5"/>
    </g>

    <!-- 青花瓷碗 -->
    <g transform="translate(200 150)">
      <ellipse cx="0" cy="0" rx="45" ry="25" fill="#fff" stroke="#1a3158"/>
      <path d="M-45 0c0 30 90 30 90 0" stroke="#1a3158" fill="#f0f8ff"/>
      <path d="M-30-5l5 10-5 10" stroke="#375a8c" stroke-width="1.5"/>
    </g>

    <!-- 紫砂茶壶 -->
    <g transform="translate(350 200)" stroke="#6b4226">
      <path d="M0 0c0-20 30-20 30 0v30c0 20-30 20-30 0z" fill="#8b5e3c" stroke-width="3"/>
      <path d="M30 10c20 0 20 10 0 10" stroke-linecap="round"/>
      <path d="M0 10L-20 20 0 30" stroke-width="3"/>
    </g>

    <!-- 新鲜香葱 -->
    <g transform="translate(450 100)" stroke="#7d9c4a">
      <path d="M0 0c0 50 20 50 20 0" stroke-width="3"/>
      <path d="M10 0v-50" stroke-width="2"/>
      <path d="M5-30l5-10 5 10" stroke-width="1.5"/>
    </g>

    <!-- 生姜 -->
    <path d="M500 400c20-20 40 0 20 20s-40 0-20-20z" fill="#ffd700" stroke="#cc9900" transform="rotate(15 500 400)"/>

    <!-- 大蒜 -->
    <g stroke="#9b72af" fill="#e6d4f0" transform="translate(150 400)">
      <circle cx="0" cy="0" r="22" stroke-width="3"/>
      <circle cx="20" cy="-10" r="17"/>
      <circle cx="10" cy="20" r="17"/>
    </g>

    <!-- 红辣椒 -->
    <g stroke="#c0392b" transform="translate(300 350)">
      <path d="M0 0c0 50 20 50 20 0l-10-30" fill="#e74c3c"/>
      <path d="M10-30v-20" stroke-linecap="round"/>
    </g>

    <!-- 八角香料 -->
    <g stroke="#8b4513" transform="translate(400 500)">
      <path d="M0 0l20-20 20 20-20 20z" fill="#a0522d"/>
      <path d="M20-20v40M0 0h40" stroke="#632c0e"/>
    </g>

    <!-- 青瓷盘 -->
    <g transform="translate(250 500)" stroke="#2c7873">
      <circle r="40" fill="#e8f8f5" stroke-width="3"/>
      <circle r="30" stroke-dasharray="3 1" stroke-width="1.5"/>
      <path d="M-25-25l50 50M25-25l-50 50" stroke-opacity="0.3"/>
    </g>
  </g>
</svg> 